<?xml version="1.0" encoding="UTF-8"?>
<!DOCTYPE svg PUBLIC "-//W3C//DTD SVG 1.1//EN" "http://www.w3.org/Graphics/SVG/1.1/DTD/svg11.dtd">
<!-- Creator: CorelDRAW X7 -->
<svg xmlns="http://www.w3.org/2000/svg" xml:space="preserve" width="80.3909mm" height="76.7134mm" version="1.1" style="shape-rendering:geometricPrecision; text-rendering:geometricPrecision; image-rendering:optimizeQuality; fill-rule:evenodd; clip-rule:evenodd"
viewBox="0 0 8039 7671"
 xmlns:xlink="http://www.w3.org/1999/xlink">
 <defs>
  <style type="text/css">
   <![CDATA[
    .fil0 {fill:white}
    .fil1 {fill:white;fill-rule:nonzero}
   ]]>
  </style>
 </defs>
 <g id="Layer_x0020_1">
  <metadata id="CorelCorpID_0Corel-Layer"/>
  <path class="fil0" d="M2066 2567l2568 -2567 0 0c353,353 353,931 0,1284l-1933 1932 0 1 -1 0 -1 1 0 0c-87,89 -86,231 2,319 88,88 230,89 319,2l0 0 1 -1 1 -1 0 0 1621 -1621 0 0c353,353 353,931 0,1284l-981 981 0 0c-18,18 -32,38 -42,59 -52,59 -93,127 -123,199 -36,87 -55,181 -55,277 0,200 81,380 212,511 82,83 185,146 299,181 -222,-7 -443,-95 -612,-264l-1284 -1284c-353,-353 -353,-931 0,-1284l0 0 0 0c3,-3 6,-6 9,-9zm1541 1838c10,35 29,68 56,95 89,88 231,89 320,2l0 0 1 -1 0 -1 1 0 658 -659 0 0c353,353 353,931 0,1284l-18 19 -7 6 0 0c-72,70 -152,126 -238,168 -68,24 -141,37 -215,37 -176,0 -336,-72 -452,-187 -115,-116 -187,-276 -187,-452 0,-85 17,-168 49,-245 9,-22 20,-44 32,-66z"/>
  <path class="fil0" d="M2066 2567l2568 -2567 0 0c353,353 353,931 0,1284l-1933 1932 0 1 -1 0 -1 1 0 0c-87,89 -86,231 2,319 88,88 230,89 319,2l0 0 1 -1 1 -1 0 0 1621 -1621 0 0c353,353 353,931 0,1284l-981 981 0 0c-17,17 -31,36 -41,57 -8,9 -16,19 -24,29l0 1c-41,52 -75,110 -100,171 -36,87 -55,181 -55,277 0,200 81,380 212,511 82,83 185,146 299,181 -222,-7 -443,-95 -612,-264l-1284 -1284c-353,-353 -353,-931 0,-1284l0 0 0 0c3,-3 6,-6 9,-9zm2295 2757c8,-3 15,-5 23,-8l-4 2c-7,2 -13,4 -19,6z"/>
  <g id="_2005031193232">
   <path class="fil1" d="M216 6569c0,-84 29,-157 88,-217 59,-61 131,-91 216,-91l99 0c56,0 104,-20 144,-59 40,-40 60,-88 60,-145l-303 0c-142,0 -264,50 -367,150 -102,99 -153,220 -153,362l0 515c59,0 110,-21 152,-64 42,-42 64,-93 64,-152l0 -299z"/>
   <path class="fil1" d="M408 6468l228 0c0,57 -20,105 -60,145 -40,39 -89,59 -145,59l-23 0c-28,0 -52,-10 -72,-29 -20,-19 -30,-43 -30,-72 0,-29 10,-54 29,-73 20,-20 44,-30 73,-30z"/>
   <path class="fil1" d="M1132 6572c0,85 30,157 89,217 59,61 131,91 215,91l99 0c57,0 105,20 144,60 40,39 60,87 60,144l-303 0c-142,0 -264,-50 -366,-150 -102,-99 -153,-220 -153,-362l0 -515c59,0 109,22 152,64 42,42 63,93 63,152l0 299z"/>
   <path class="fil1" d="M2164 6057c142,0 264,51 367,151 102,101 153,222 153,364 0,142 -51,263 -153,362 -103,100 -225,150 -367,150 -142,0 -264,-50 -365,-150 -102,-99 -153,-220 -153,-362 0,-142 51,-263 153,-364 101,-100 223,-151 365,-151zm0 204c-84,0 -156,31 -215,92 -58,61 -88,134 -88,219 0,85 30,157 88,217 59,61 131,91 215,91 85,0 157,-30 216,-91 59,-60 88,-132 88,-217 0,-85 -29,-158 -88,-219 -59,-61 -131,-92 -216,-92z"/>
   <path class="fil1" d="M3647 6572l0 -515c59,0 109,22 152,64 42,42 63,93 63,152l0 299c0,85 30,157 89,217 59,61 131,91 215,91 85,0 157,-30 215,-91 59,-60 88,-132 88,-217l0 -299c0,-59 21,-110 64,-152 42,-42 93,-64 152,-64l0 515c0,142 -51,263 -152,362 -102,100 -224,150 -367,150 -80,0 -156,-18 -228,-53 -72,-36 -133,-85 -182,-149 -51,64 -112,113 -185,149 -73,35 -149,53 -228,53 -142,0 -264,-50 -366,-150 -102,-99 -153,-220 -153,-362l0 -515c59,0 110,22 152,64 43,42 64,93 64,152l0 299c0,84 29,156 88,217 59,60 131,91 215,91 84,0 156,-30 215,-91 59,-60 89,-132 89,-217z"/>
   <path class="fil1" d="M5882 6572l0 512 -521 0c-142,0 -264,-50 -366,-150 -102,-99 -153,-220 -153,-362 0,-142 51,-263 153,-364 102,-100 224,-151 366,-151 143,0 265,51 367,151 103,101 154,222 154,364zm-218 308l0 -308c0,-85 -29,-158 -88,-219 -58,-61 -130,-92 -215,-92 -85,0 -157,31 -215,92 -59,61 -89,134 -89,219 0,85 30,157 89,217 58,61 130,91 215,91l303 0z"/>
   <path class="fil1" d="M6255 7084l-216 0 0 -1027c59,0 110,22 153,64 42,42 63,93 63,152l0 207 285 0c84,0 155,-31 214,-93 59,-61 89,-134 89,-218l0 -96 215 0 0 96c0,82 -18,159 -56,232 -37,72 -88,132 -154,181 66,49 117,109 154,182 38,72 56,149 56,230l0 90 -215 0 0 -90c0,-84 -30,-156 -89,-218 -59,-62 -130,-92 -214,-92l-285 0 0 400z"/>
   <path class="fil1" d="M7735 7084c-142,0 -264,-50 -366,-150 -102,-99 -152,-220 -152,-362 0,-142 50,-263 152,-364 102,-100 224,-151 366,-151l304 0c0,57 -20,105 -60,145 -40,39 -89,59 -145,59l-99 0c-84,0 -155,31 -214,93 -59,61 -89,134 -89,218 0,84 30,156 89,217 59,60 130,91 214,91l99 0c56,0 105,20 145,60 40,39 60,87 60,144l-304 0z"/>
   <path class="fil1" d="M7626 6468l228 0c0,57 -20,105 -60,145 -40,39 -89,59 -145,59l-23 0c-28,0 -52,-10 -72,-29 -20,-19 -29,-43 -29,-72 0,-29 9,-54 28,-73 20,-20 44,-30 73,-30z"/>
  </g>
  <path class="fil1" d="M1259 7422l0 29 -77 0 0 215 -34 0 0 -215 -77 0 0 -29 188 0zm341 0l35 0 0 244 -35 0 0 -113 -119 0 0 113 -35 0 0 -244 35 0 0 102 119 0 0 -102zm247 244l0 -244 149 0 0 29 -115 0 0 73 102 0 0 28 -102 0 0 85 124 0 0 29 -158 0zm459 0l0 -244 147 0 0 29 -113 0 0 74 101 0 0 29 -101 0 0 112 -34 0zm488 -30l0 30 -147 0 0 -244 34 0 0 214 113 0zm161 -92c0,-21 4,-40 10,-56 6,-16 14,-29 25,-40 11,-10 23,-19 38,-24 14,-5 29,-8 45,-8 16,0 31,3 45,8 14,5 26,14 37,24 10,11 19,24 25,40 6,16 9,35 9,56 0,21 -3,39 -9,55 -6,16 -15,29 -25,40 -11,11 -23,19 -37,24 -14,6 -29,8 -45,8 -16,0 -31,-2 -45,-8 -15,-5 -27,-13 -38,-24 -11,-11 -19,-24 -25,-40 -6,-16 -10,-34 -10,-55zm36 0c0,14 2,28 6,40 4,12 9,22 16,31 7,8 16,15 26,19 10,5 21,7 33,7 13,0 24,-2 34,-7 10,-4 18,-11 25,-19 7,-9 13,-19 16,-31 4,-12 6,-26 6,-40 0,-15 -2,-29 -6,-41 -3,-12 -9,-22 -16,-31 -7,-8 -15,-15 -25,-19 -10,-5 -21,-7 -34,-7 -12,0 -23,2 -33,7 -10,4 -19,11 -26,19 -7,9 -12,19 -16,31 -4,12 -6,26 -6,41zm529 -44c-10,32 -20,61 -30,88 -10,27 -21,53 -31,78l-34 0c-12,-36 -23,-74 -33,-114 -10,-40 -18,-83 -27,-130l36 0c4,18 7,36 11,55 3,18 7,36 11,53 3,17 7,34 11,50 4,15 8,30 12,43 9,-24 19,-51 30,-81 10,-29 20,-60 29,-91l30 0c9,31 19,62 30,91 11,30 21,57 30,81 4,-13 8,-27 12,-43 4,-16 7,-32 11,-50 4,-17 7,-35 11,-53 3,-19 7,-37 10,-55l35 0c-9,47 -18,90 -27,130 -10,40 -21,78 -33,114l-34 0c-11,-25 -21,-51 -31,-78 -9,-27 -19,-56 -29,-88zm442 44c0,-21 3,-40 9,-56 6,-16 15,-29 25,-40 11,-10 24,-19 38,-24 14,-5 29,-8 45,-8 16,0 31,3 45,8 14,5 26,14 37,24 11,11 19,24 25,40 6,16 10,35 10,56 0,21 -4,39 -10,55 -6,16 -14,29 -25,40 -11,11 -23,19 -37,24 -14,6 -29,8 -45,8 -16,0 -31,-2 -45,-8 -14,-5 -27,-13 -38,-24 -10,-11 -19,-24 -25,-40 -6,-16 -9,-34 -9,-55zm36 0c0,14 2,28 5,40 4,12 9,22 16,31 7,8 16,15 26,19 10,5 21,7 34,7 12,0 23,-2 33,-7 10,-4 18,-11 25,-19 7,-9 13,-19 17,-31 3,-12 5,-26 5,-40 0,-15 -2,-29 -5,-41 -4,-12 -10,-22 -17,-31 -7,-8 -15,-15 -25,-19 -10,-5 -21,-7 -33,-7 -13,0 -24,2 -34,7 -10,4 -19,11 -26,19 -7,9 -12,19 -16,31 -3,12 -5,26 -5,41zm400 122l0 -244 147 0 0 29 -113 0 0 74 101 0 0 29 -101 0 0 112 -34 0zm552 5c-17,0 -33,-2 -47,-8 -14,-6 -26,-14 -36,-25 -11,-11 -18,-24 -24,-40 -5,-16 -8,-34 -8,-54 0,-21 3,-39 9,-55 6,-16 15,-29 25,-40 11,-11 23,-19 38,-25 14,-5 29,-8 45,-8 10,0 19,1 27,2 8,1 15,3 21,5 6,2 11,4 15,6 4,2 6,3 8,4l-10 28c-2,-1 -5,-3 -9,-4 -4,-2 -9,-4 -14,-5 -5,-2 -10,-3 -16,-4 -6,-2 -13,-2 -19,-2 -13,0 -24,2 -35,7 -10,4 -19,11 -26,19 -7,8 -13,19 -17,31 -4,12 -6,26 -6,41 0,14 2,28 5,40 4,12 9,22 16,30 7,9 15,16 25,20 11,5 23,7 36,7 16,0 29,-1 39,-5 11,-3 19,-6 24,-8l9 28c-2,1 -5,2 -9,4 -4,2 -10,4 -16,5 -6,2 -14,3 -22,5 -9,1 -18,1 -28,1zm419 -249l34 0 0 244 -34 0 0 -113 -120 0 0 113 -34 0 0 -244 34 0 0 102 120 0 0 -102zm410 244c-4,-11 -8,-21 -11,-31 -4,-10 -7,-21 -11,-31l-111 0 -23 62 -35 0c9,-26 18,-50 26,-72 9,-22 17,-43 24,-62 8,-20 16,-39 24,-57 8,-18 16,-36 24,-53l32 0c8,17 16,35 24,53 8,18 16,37 24,57 8,19 16,40 24,62 8,22 17,46 26,72l-37 0zm-32 -91c-8,-20 -15,-40 -23,-59 -7,-19 -15,-38 -23,-55 -8,17 -16,36 -23,55 -8,19 -15,39 -22,59l91 0zm422 91c-5,-9 -11,-18 -18,-29 -7,-11 -14,-22 -22,-34 -8,-12 -16,-23 -24,-35 -8,-12 -17,-24 -25,-35 -8,-11 -16,-22 -24,-32 -8,-10 -15,-18 -22,-26l0 191 -33 0 0 -244 27 0c11,11 23,25 36,41 12,15 25,31 37,48 12,17 24,33 35,49 11,16 20,30 28,43l0 -181 33 0 0 244 -28 0zm390 -120l34 0 0 114c-3,1 -7,2 -12,3 -5,1 -12,3 -18,4 -7,1 -15,2 -23,3 -9,1 -17,1 -25,1 -18,0 -33,-3 -47,-8 -15,-6 -27,-14 -37,-25 -10,-11 -18,-24 -23,-40 -6,-16 -9,-34 -9,-54 0,-21 4,-39 10,-55 6,-16 14,-29 25,-40 11,-11 23,-19 37,-25 15,-5 30,-8 46,-8 11,0 21,1 30,2 8,1 16,3 22,5 6,2 11,4 15,6 4,2 6,3 8,4l-11 28c-7,-4 -16,-8 -27,-11 -12,-3 -23,-4 -35,-4 -13,0 -24,2 -34,7 -10,4 -19,11 -26,19 -8,8 -13,19 -17,31 -4,12 -6,26 -6,41 0,14 2,28 5,40 3,12 9,22 15,30 7,9 16,16 26,20 11,5 23,7 37,7 9,0 18,0 25,-1 7,-1 12,-2 15,-3l0 -91zm239 120l0 -244 149 0 0 29 -115 0 0 73 103 0 0 28 -103 0 0 85 124 0 0 29 -158 0z"/>
 </g>
</svg>
